<svg width="49" height="21" viewBox="0 0 49 21" fill="none" xmlns="http://www.w3.org/2000/svg">
<g clip-path="url(#clip0_74_2037)">
<path d="M39.2668 19.6129H11.7675C8.04089 19.6129 4.9834 16.7564 4.9834 13.2327V7.82936C4.9834 4.30567 8.04089 1.54667 11.7675 1.66557L39.2668 2.54283C42.595 2.64899 45.2628 5.38853 45.2628 8.66295V13.6841C45.2628 16.9584 42.595 19.6129 39.2668 19.6129Z" fill="url(#paint0_linear_74_2037)"/>
<path d="M20.5781 10.2442C20.5781 12.5974 18.5749 14.4798 16.0837 14.4483C13.57 14.4166 11.5156 12.4517 11.5156 10.06C11.5156 7.66821 13.57 5.78689 16.0837 5.85739C18.5749 5.92719 20.5781 7.891 20.5781 10.2442Z" fill="white"/>
<path d="M39.1618 10.622C39.1618 12.8962 37.291 14.7162 34.9651 14.6868C32.6191 14.6571 30.7021 12.7601 30.7021 10.45C30.7021 8.1398 32.6191 6.32073 34.9651 6.38649C37.291 6.45173 39.1618 8.34773 39.1618 10.622Z" fill="white"/>
<path opacity="0.3" d="M28.881 21.6388C24.7912 16.8335 26.6085 12.9905 21.2617 6.47869C13.905 -2.48134 5.32268 -1.46746 3.35688 -7.54444C2.81218 -9.22836 2.74963 -11.5396 4.21065 -14.7346C-6.99455 -11.5025 -15.1904 -1.17184 -15.1904 11.074V11.0742C-15.1904 18.9895 -8.77381 25.4062 -0.858524 25.4062H33.5827C31.5198 24.2816 30.0122 22.968 28.881 21.6388Z" fill="#B4DBFF"/>
</g>
<defs>
<linearGradient id="paint0_linear_74_2037" x1="4.98342" y1="10.6374" x2="45.2628" y2="10.6374" gradientUnits="userSpaceOnUse">
<stop stop-color="#444B8C"/>
<stop offset="0.9964" stop-color="#26264F"/>
</linearGradient>
<clipPath id="clip0_74_2037">
<rect width="49" height="20.09" fill="white" transform="translate(0 0.455078)"/>
</clipPath>
</defs>
</svg>
