<svg width="26" height="25" viewBox="0 0 26 25" fill="none" xmlns="http://www.w3.org/2000/svg">
<path d="M11.291 7.66003C10.0997 8.56291 8.97255 9.54752 7.91781 10.6067C2.94722 15.5773 0.43046 21.116 2.29356 22.9808C4.15666 24.8439 9.69702 22.3254 14.6659 17.3565C15.7252 16.3012 16.7098 15.1736 17.6126 13.9816" stroke="black" stroke-width="1.5" stroke-linecap="round" stroke-linejoin="round"/>
<path d="M17.6123 13.9816C20.5433 17.8721 21.737 21.5319 20.2899 22.979C18.425 24.8439 12.8864 22.3254 7.91582 17.3565C2.94872 12.3842 0.431964 6.84733 2.29506 4.98248C3.7422 3.53709 7.40198 4.73081 11.2925 7.66003" stroke="black" stroke-width="1.5" stroke-linecap="round" stroke-linejoin="round"/>
<path d="M10.417 13.9816C10.417 14.2134 10.5091 14.4357 10.6729 14.5995C10.8368 14.7634 11.0591 14.8555 11.2909 14.8555C11.5226 14.8555 11.7449 14.7634 11.9088 14.5995C12.0727 14.4357 12.1647 14.2134 12.1647 13.9816C12.1647 13.7499 12.0727 13.5276 11.9088 13.3637C11.7449 13.1998 11.5226 13.1078 11.2909 13.1078C11.0591 13.1078 10.8368 13.1998 10.6729 13.3637C10.5091 13.5276 10.417 13.7499 10.417 13.9816ZM14.8038 6.37193C14.2533 6.2758 14.2533 5.48757 14.8038 5.39319C15.7762 5.22405 16.6761 4.76917 17.3889 4.08655C18.1018 3.40393 18.5951 2.5245 18.8062 1.56038L18.8376 1.40832C18.9565 0.866522 19.729 0.863027 19.8513 1.40308L19.8933 1.5796C20.1122 2.53946 20.61 3.4132 21.3239 4.09109C22.0379 4.76897 22.9362 5.22076 23.9061 5.3897C24.4584 5.48582 24.4584 6.2793 23.9061 6.37368C22.9362 6.54262 22.0379 6.9944 21.3239 7.67229C20.61 8.35017 20.1122 9.22392 19.8933 10.1838L19.8513 10.3603C19.729 10.9021 18.9565 10.8986 18.8376 10.3568L18.8027 10.2047C18.5916 9.24062 18.0983 8.36119 17.3855 7.67857C16.6726 6.99595 15.7727 6.54108 14.8003 6.37193H14.8038Z" stroke="black" stroke-width="1.5" stroke-linecap="round" stroke-linejoin="round"/>
</svg>
