<svg width="18" height="18" viewBox="0 0 18 18" fill="none" xmlns="http://www.w3.org/2000/svg">
<path d="M14.9807 0.801003C14.9348 0.574945 14.8122 0.371708 14.6336 0.225727C14.455 0.0797464 14.2314 0 14.0007 0C13.7701 0 13.5465 0.0797464 13.3679 0.225727C13.1893 0.371708 13.0666 0.574945 13.0207 0.801003L12.7807 1.993C12.7421 2.18663 12.6471 2.3645 12.5076 2.5042C12.3681 2.64389 12.1903 2.73916 11.9967 2.778L10.8047 3.016C10.5776 3.06092 10.3731 3.18328 10.2261 3.36218C10.0791 3.54109 9.99873 3.76546 9.99873 3.997C9.99873 4.22855 10.0791 4.45292 10.2261 4.63182C10.3731 4.81073 10.5776 4.93308 10.8047 4.978L11.9967 5.216C12.1905 5.25466 12.3685 5.34986 12.5082 5.48957C12.6479 5.62928 12.7431 5.80724 12.7817 6.001L13.0197 7.193C13.0646 7.42015 13.187 7.62467 13.3659 7.77166C13.5448 7.91864 13.7692 7.99899 14.0007 7.99899C14.2323 7.99899 14.4566 7.91864 14.6355 7.77166C14.8144 7.62467 14.9368 7.42015 14.9817 7.193L15.2197 6.001C15.2584 5.80724 15.3536 5.62928 15.4933 5.48957C15.633 5.34986 15.811 5.25466 16.0047 5.216L17.1967 4.978C17.4239 4.93308 17.6284 4.81073 17.7754 4.63182C17.9224 4.45292 18.0027 4.22855 18.0027 3.997C18.0027 3.76546 17.9224 3.54109 17.7754 3.36218C17.6284 3.18328 17.4239 3.06092 17.1967 3.016L16.0047 2.778C15.811 2.73934 15.633 2.64415 15.4933 2.50444C15.3536 2.36473 15.2584 2.18676 15.2197 1.993L14.9807 0.801003ZM5.94972 4.681C5.8835 4.48166 5.75618 4.30824 5.58584 4.18533C5.4155 4.06242 5.21078 3.99628 5.00072 3.99628C4.79067 3.99628 4.58595 4.06242 4.41561 4.18533C4.24526 4.30824 4.11795 4.48166 4.05172 4.681L3.36872 6.732C3.31965 6.87944 3.23689 7.01341 3.12701 7.12329C3.01713 7.23317 2.88316 7.31593 2.73572 7.365L0.684724 8.048C0.485383 8.11423 0.311957 8.24154 0.189051 8.41189C0.0661451 8.58223 0 8.78695 0 8.997C0 9.20706 0.0661451 9.41178 0.189051 9.58212C0.311957 9.75246 0.485383 9.87978 0.684724 9.946L2.73572 10.63C2.88305 10.679 3.01696 10.7616 3.12683 10.8713C3.2367 10.981 3.31952 11.1147 3.36872 11.262L4.05172 13.313C4.11795 13.5123 4.24526 13.6858 4.41561 13.8087C4.58595 13.9316 4.79067 13.9977 5.00072 13.9977C5.21078 13.9977 5.4155 13.9316 5.58584 13.8087C5.75618 13.6858 5.8835 13.5123 5.94972 13.313L6.63272 11.262C6.6818 11.1146 6.76456 10.9806 6.87444 10.8707C6.98431 10.7608 7.11829 10.6781 7.26572 10.629L9.31672 9.946C9.51606 9.87978 9.68949 9.75246 9.8124 9.58212C9.9353 9.41178 10.0014 9.20706 10.0014 8.997C10.0014 8.78695 9.9353 8.58223 9.8124 8.41189C9.68949 8.24154 9.51606 8.11423 9.31672 8.048L7.26572 7.365C7.11829 7.31593 6.98431 7.23317 6.87444 7.12329C6.76456 7.01341 6.6818 6.87944 6.63272 6.732L5.94972 4.681ZM12.9497 12.681C12.8835 12.4817 12.7562 12.3082 12.5858 12.1853C12.4155 12.0624 12.2108 11.9963 12.0007 11.9963C11.7907 11.9963 11.5859 12.0624 11.4156 12.1853C11.2453 12.3082 11.1179 12.4817 11.0517 12.681L10.8677 13.232C10.8187 13.3793 10.7361 13.5132 10.6264 13.6231C10.5167 13.733 10.383 13.8158 10.2357 13.865L9.68472 14.048C9.48538 14.1142 9.31196 14.2415 9.18905 14.4119C9.06614 14.5822 9 14.7869 9 14.997C9 15.2071 9.06614 15.4118 9.18905 15.5821C9.31196 15.7525 9.48538 15.8798 9.68472 15.946L10.2357 16.129C10.3832 16.1781 10.5171 16.2608 10.627 16.3707C10.7369 16.4806 10.8196 16.6146 10.8687 16.762L11.0517 17.313C11.1179 17.5123 11.2453 17.6858 11.4156 17.8087C11.5859 17.9316 11.7907 17.9977 12.0007 17.9977C12.2108 17.9977 12.4155 17.9316 12.5858 17.8087C12.7562 17.6858 12.8835 17.5123 12.9497 17.313L13.1337 16.762C13.1827 16.6147 13.2653 16.4808 13.375 16.3709C13.4847 16.261 13.6185 16.1782 13.7657 16.129L14.3167 15.946C14.5161 15.8798 14.6895 15.7525 14.8124 15.5821C14.9353 15.4118 15.0014 15.2071 15.0014 14.997C15.0014 14.7869 14.9353 14.5822 14.8124 14.4119C14.6895 14.2415 14.5161 14.1142 14.3167 14.048L13.7657 13.864C13.6184 13.815 13.4845 13.7324 13.3746 13.6227C13.2648 13.513 13.1819 13.3793 13.1327 13.232L12.9497 12.681Z" fill="black"/>
</svg>
